<svg xmlns="http://www.w3.org/2000/svg" width="16.5" height="16.5" viewBox="0 0 16.5 16.5">
    <path d="M18 10a8 8 0 1 0-8 8 8 8 0 0 0 8-8zm-1.656-.8H14a10.328 10.328 0 0 0-1.864-5.232A6.4 6.4 0 0 1 16.344 9.2zm-8.68 1.6H12.4a9.152 9.152 0 0 1-2.4 5.288A8.8 8.8 0 0 1 7.664 10.8zm0-1.6A9.12 9.12 0 0 1 10 3.92a8.952 8.952 0 0 1 2.4 5.28zm.288-5.256A10.544 10.544 0 0 0 6.056 9.2h-2.4a6.4 6.4 0 0 1 4.3-5.256zM3.656 10.8h2.4a10.288 10.288 0 0 0 1.88 5.248 6.4 6.4 0 0 1-4.28-5.248zm8.44 5.24A10.512 10.512 0 0 0 14 10.8h2.36a6.4 6.4 0 0 1-4.26 5.24z" transform="translate(-1.75 -1.75)" style="stroke:#efeeea;stroke-width:.5px"/>
</svg>
